<svg width="23" height="22" viewBox="0 0 23 22" fill="none" xmlns="http://www.w3.org/2000/svg">
<path fill-rule="evenodd" clip-rule="evenodd" d="M19.1699 1.13379H7.68262C7.73535 0.395508 8.15723 0 8.96582 0H17.8867C18.6953 0 19.1172 0.395508 19.1699 1.13379ZM20.8926 3.56836H5.95996C6.0918 2.76855 6.46973 2.3291 7.34863 2.3291H19.5039C20.3828 2.3291 20.7607 2.76855 20.8926 3.56836ZM20.084 19.7754H9.50873C9.71045 19.3321 9.85504 18.8572 9.93311 18.3604H20.0664C20.9277 18.3604 21.4287 17.8857 21.4287 16.9717V7.78711C21.4287 6.87305 20.9277 6.40723 20.0664 6.40723H6.77734C5.89844 6.40723 5.41504 6.87305 5.41504 7.78711V12.0757C5.11743 12.0259 4.81177 12 4.5 12C4.37311 12 4.24719 12.0043 4.12244 12.0128C4.08148 12.0155 4.04065 12.0187 4 12.0224V7.7168C4 5.89746 4.91406 4.99219 6.75977 4.99219H20.084C21.9209 4.99219 22.8438 5.90625 22.8438 7.7168V17.0508C22.8438 18.8613 21.9209 19.7754 20.084 19.7754ZM4.48242 21.9648C6.93457 21.9648 8.96484 19.9302 8.96484 17.4824C8.96484 15.0303 6.93018 13 4.47803 13C2.03027 13 0 15.0303 0 17.4824C0 19.9302 2.03467 21.9648 4.48242 21.9648ZM6.43359 15.439C6.97852 15.9795 6.93018 16.6475 6.30615 17.2715L5.5459 18.0317C5.61182 17.8208 5.60303 17.5747 5.53711 17.4077L5.97656 16.9639C6.41162 16.542 6.45557 16.0981 6.11279 15.7598C5.77441 15.4258 5.33057 15.4785 4.90869 15.9004L4.28467 16.52C3.84961 16.9595 3.78809 17.4077 4.13086 17.7417C4.23193 17.8472 4.38135 17.9131 4.5791 17.9482C4.50879 18.0889 4.37256 18.2515 4.24951 18.3394C4.11328 18.3174 3.95068 18.2119 3.80566 18.0669C3.26074 17.5264 3.31787 16.8496 3.95508 16.208L4.60107 15.5708C5.2251 14.9424 5.89307 14.8984 6.43359 15.439ZM2.37305 19.4995C1.83252 18.959 1.87646 18.291 2.50928 17.667L3.26953 16.9067C3.19922 17.1177 3.20361 17.3638 3.27393 17.5308L2.83008 17.9746C2.39941 18.3921 2.35547 18.8403 2.69824 19.1787C3.03662 19.5127 3.48047 19.46 3.89795 19.0381L4.52637 18.4185C4.96143 17.979 5.01855 17.5308 4.68018 17.1968C4.57471 17.0913 4.42969 17.0254 4.23193 16.9902C4.29785 16.8496 4.43848 16.687 4.56152 16.5991C4.69336 16.6211 4.86035 16.7266 5.00537 16.8716C5.55029 17.4121 5.49316 18.0845 4.85596 18.7261L4.20996 19.3677C3.58594 19.9961 2.91357 20.04 2.37305 19.4995Z" fill="#1C1C1E"/>
</svg>
